<?xml version="1.0" encoding="UTF-8" standalone="no"?>
<!-- Created with Inkscape (http://www.inkscape.org/) -->

<svg
   xmlns:dc="http://purl.org/dc/elements/1.1/"
   xmlns:cc="http://creativecommons.org/ns#"
   xmlns:rdf="http://www.w3.org/1999/02/22-rdf-syntax-ns#"
   xmlns:svg="http://www.w3.org/2000/svg"
   xmlns="http://www.w3.org/2000/svg"
   xmlns:sodipodi="http://sodipodi.sourceforge.net/DTD/sodipodi-0.dtd"
   xmlns:inkscape="http://www.inkscape.org/namespaces/inkscape"
   width="600"
   height="180"
   viewBox="0 0 158.75 47.625"
   version="1.1"
   id="svg8"
   inkscape:version="0.92.1 r15371"
   sodipodi:docname="logo.svg">
  <defs
     id="defs2" />
  <sodipodi:namedview
     id="base"
     pagecolor="#ffffff"
     bordercolor="#666666"
     borderopacity="1.0"
     inkscape:pageopacity="0.0"
     inkscape:pageshadow="2"
     inkscape:zoom="1.9283383"
     inkscape:cx="290.28124"
     inkscape:cy="83.770374"
     inkscape:document-units="mm"
     inkscape:current-layer="layer1"
     showgrid="true"
     inkscape:measure-start="0,0"
     inkscape:measure-end="0,0"
     fit-margin-top="0"
     fit-margin-left="0"
     fit-margin-right="0"
     fit-margin-bottom="0"
     units="px"
     inkscape:window-width="1920"
     inkscape:window-height="1018"
     inkscape:window-x="-8"
     inkscape:window-y="-8"
     inkscape:window-maximized="1">
    <inkscape:grid
       type="xygrid"
       id="grid4497"
       originx="-31.48995"
       originy="-231.74402" />
  </sodipodi:namedview>
  <metadata
     id="metadata5">
    <rdf:RDF>
      <cc:Work
         rdf:about="">
        <dc:format>image/svg+xml</dc:format>
        <dc:type
           rdf:resource="http://purl.org/dc/dcmitype/StillImage" />
        <dc:title></dc:title>
      </cc:Work>
    </rdf:RDF>
  </metadata>
  <g
     inkscape:label="Layer 1"
     inkscape:groupmode="layer"
     id="layer1"
     transform="translate(-31.489951,-17.63098)">
    <g
       id="g4547"
       style="fill:#dddddd;fill-opacity:1"
       transform="translate(3.1750001,-2.6458334)">
      <g
         id="text4487"
         style="font-style:normal;font-variant:normal;font-weight:normal;font-stretch:normal;font-size:50.79999924px;line-height:6.61458302px;font-family:AmazDooMLeft;-inkscape-font-specification:AmazDooMLeft;text-align:start;letter-spacing:0px;word-spacing:0px;text-anchor:start;fill:#dddddd;fill-opacity:1;stroke:none;stroke-width:0.26458332px;stroke-linecap:butt;stroke-linejoin:miter;stroke-opacity:1"
         aria-label="Doo">
        <path
           id="path4534"
           style="font-style:normal;font-variant:normal;font-weight:normal;font-stretch:normal;font-family:AmazDooMLeft;-inkscape-font-specification:AmazDooMLeft;fill:#dddddd;fill-opacity:1;stroke-width:0.26458332px"
           d="m 44.139151,22.982378 3.4544,2.0828 v 24.9936 l -15.494,12.395199 0.4064,-0.9652 V 24.252378 l -1.016,-1.27 z m -6.0452,5.9944 v 19.558 l 3.4036,-2.5908 v -16.9672 z"
           inkscape:connector-curvature="0" />
        <path
           id="path4536"
           style="font-style:normal;font-variant:normal;font-weight:normal;font-stretch:normal;font-family:AmazDooMLeft;-inkscape-font-specification:AmazDooMLeft;fill:#dddddd;fill-opacity:1;stroke-width:0.26458332px"
           d="m 62.578757,22.982378 2.286,2.286 v 23.2156 l -8.382,6.1468 -7.0612,-5.6388 v -23.5712 l 2.1844,-2.4384 z m -7.3152,6.0452 v 15.8496 l 3.4036,2.8956 v -18.7452 z"
           inkscape:connector-curvature="0" />
        <path
           id="path4538"
           style="font-style:normal;font-variant:normal;font-weight:normal;font-stretch:normal;font-family:AmazDooMLeft;-inkscape-font-specification:AmazDooMLeft;fill:#dddddd;fill-opacity:1;stroke-width:0.26458332px"
           d="m 79.049069,22.982378 2.286,2.286 v 23.2156 l -8.382,6.1468 -7.0612,-5.6388 v -23.5712 l 2.1844,-2.4384 z m -7.3152,6.0452 v 15.8496 l 3.4036,2.8956 v -18.7452 z"
           inkscape:connector-curvature="0" />
      </g>
      <g
         id="text4505"
         style="font-style:normal;font-variant:normal;font-weight:normal;font-stretch:normal;font-size:50.79999924px;line-height:6.61458302px;font-family:AmazDooMRight;-inkscape-font-specification:AmazDooMRight;text-align:start;letter-spacing:0px;word-spacing:0px;text-anchor:start;fill:#dddddd;fill-opacity:1;stroke:none;stroke-width:0.26458332px;stroke-linecap:butt;stroke-linejoin:miter;stroke-opacity:1"
         aria-label="M">
        <path
           id="path4531"
           style="fill:#dddddd;fill-opacity:1;stroke-width:0.26458332px"
           d="m 82.290287,24.588352 -0.9652,-1.4732 h 6.7056 l 3.1496,8.0264 2.9464,-8.0264 h 6.502403 l -0.4064,1.2192 v 36.9316 l 0.6604,3.048 -3.302003,-2.4384 -3.4544,-2.5908 0.8128,-1.1684 v -13.5128 l -3.7084,10.1092 -3.81,-13.5636 v 13.1064 l -5.4864,-4.1148 0.3556,-0.3048 z"
           inkscape:connector-curvature="0" />
      </g>
    </g>
    <text
       xml:space="preserve"
       style="font-style:normal;font-variant:normal;font-weight:normal;font-stretch:normal;font-size:50.79999924px;line-height:6.61458302px;font-family:AmazDooMRightOutline;-inkscape-font-specification:AmazDooMRightOutline;text-align:start;letter-spacing:0px;word-spacing:0px;text-anchor:start;fill:#000000;fill-opacity:1;stroke:none;stroke-width:0.26458332px;stroke-linecap:butt;stroke-linejoin:miter;stroke-opacity:1"
       x="116.41666"
       y="50.9375"
       id="text4509"><tspan
         sodipodi:role="line"
         id="tspan4507"
         x="116.41666"
         y="50.9375"
         style="font-style:normal;font-variant:normal;font-weight:normal;font-stretch:normal;font-family:AmazDooMRightOutline;-inkscape-font-specification:AmazDooMRightOutline;stroke-width:0.26458332px" /></text>
    <g
       aria-label="S"
       style="font-style:normal;font-variant:normal;font-weight:normal;font-stretch:normal;font-size:50.79999924px;line-height:6.61458302px;font-family:AmazDooMRightOutline;-inkscape-font-specification:AmazDooMRightOutline;text-align:start;letter-spacing:0px;word-spacing:0px;text-anchor:start;fill:#dddddd;fill-opacity:1;stroke:none;stroke-width:0.26458332px;stroke-linecap:butt;stroke-linejoin:miter;stroke-opacity:1"
       id="text4517"
       transform="translate(3.1750001,-2.6458334)">
      <g
         id="g4560"
         style="fill:#dddddd;fill-opacity:1">
        <g
           id="text4513"
           style="font-style:normal;font-variant:normal;font-weight:normal;font-stretch:normal;font-size:50.79999924px;line-height:6.61458302px;font-family:AmazDooMLeftOutline;-inkscape-font-specification:AmazDooMLeftOutline;text-align:start;letter-spacing:0px;word-spacing:0px;text-anchor:start;fill:#dddddd;fill-opacity:1;stroke:none;stroke-width:0.26458332px;stroke-linecap:butt;stroke-linejoin:miter;stroke-opacity:1"
           aria-label="Tool">
          <path
             id="path4522"
             style="font-style:normal;font-variant:normal;font-weight:normal;font-stretch:normal;font-family:AmazDooMLeftOutline;-inkscape-font-specification:AmazDooMLeftOutline;fill:#dddddd;fill-opacity:1;stroke-width:0.26458332px"
             d="m 107.85032,61.953979 -0.4572,2.0828 6.35,-4.5212 -0.762,-1.0668 V 29.08638 h 4.9276 v -4.572 l 0.762,-0.9144 h -16.0528 l 0.7112,0.9144 v 4.572 h 4.5212 z m -0.508,-32.359599 h -4.5212 v -4.8768 l -1.27,-1.6256 h 18.1864 l -1.3208,1.6256 v 4.8768 h -4.9276 v 28.651199 l 0.9144,1.3716 -7.7724,5.6388 0.7112,-3.4036 z"
             inkscape:connector-curvature="0" />
          <path
             id="path4524"
             style="font-style:normal;font-variant:normal;font-weight:normal;font-stretch:normal;font-family:AmazDooMLeftOutline;-inkscape-font-specification:AmazDooMLeftOutline;fill:#dddddd;fill-opacity:1;stroke-width:0.26458332px"
             d="m 122.02273,23.59998 -2.032,2.286 v 23.367999 l 6.8072,5.4356 8.128,-5.9944 V 25.73358 l -2.1336,-2.1336 z m 3.81,6.0452 v 15.493999 l 2.8956,2.4384 V 29.64518 Z m 7.1628,-6.5532 2.4384,2.4384 v 23.469599 l -8.636,6.2992 -7.3152,-5.842 V 25.68278 l 2.3368,-2.5908 z m -3.7592,6.0452 v 19.557999 l -3.9116,-3.3528 V 29.13718 Z"
             inkscape:connector-curvature="0" />
          <path
             id="path4526"
             style="font-style:normal;font-variant:normal;font-weight:normal;font-stretch:normal;font-family:AmazDooMLeftOutline;-inkscape-font-specification:AmazDooMLeftOutline;fill:#dddddd;fill-opacity:1;stroke-width:0.26458332px"
             d="m 138.49304,23.59998 -2.032,2.286 v 23.367999 l 6.8072,5.4356 8.128,-5.9944 V 25.73358 l -2.1336,-2.1336 z m 3.81,6.0452 v 15.493999 l 2.8956,2.4384 V 29.64518 Z m 7.1628,-6.5532 2.4384,2.4384 v 23.469599 l -8.636,6.2992 -7.3152,-5.842 V 25.68278 l 2.3368,-2.5908 z m -3.7592,6.0452 v 19.557999 l -3.9116,-3.3528 V 29.13718 Z"
             inkscape:connector-curvature="0" />
          <path
             id="path4528"
             style="font-style:normal;font-variant:normal;font-weight:normal;font-stretch:normal;font-family:AmazDooMLeftOutline;-inkscape-font-specification:AmazDooMLeftOutline;fill:#dddddd;fill-opacity:1;stroke-width:0.26458332px"
             d="m 158.31615,23.59998 h -5.334 v 25.653999 l 6.8072,5.4356 8.128,-5.9944 v -5.9436 h -5.6896 v 5.9436 l -3.9116,-3.3528 z m 0.508,21.539199 2.8956,2.4384 v -5.334 h 6.7056 v 6.7564 l -8.636,6.2992 -7.3152,-5.842 V 23.09198 h 6.35 z"
             inkscape:connector-curvature="0" />
        </g>
        <path
           id="path4519"
           style="font-style:normal;font-variant:normal;font-weight:normal;font-stretch:normal;font-family:AmazDooMRightOutline;-inkscape-font-specification:AmazDooMRightOutline;fill:#dddddd;fill-opacity:1;stroke-width:0.26458332px"
           d="m 183.83009,42.29953 -9.4996,-5.1308 v -7.9756 h 3.9116 v 1.2192 h 5.588 v -4.7244 l -3.2512,-1.9812 h -12.0396 l 0.7112,0.9144 v 14.478 l 8.9916,5.08 v 5.0292 l -3.4036,-2.6924 v -0.8636 h -5.588 v 4.7752 l 14.6304,11.684 -0.0508,-0.1016 z m 0.508,19.6088 0.8128,1.8288 -16.4084,-13.1064 v -5.4864 h 6.604 v 1.1684 l 2.3876,1.8796 v -3.7084 l -8.9916,-5.08 v -14.5796 l -1.27,-1.6256 h 13.2588 l 3.6068,2.1844 v 5.5372 h -6.604 v -1.2192 h -2.8956 v 7.1628 l 9.4996,5.1308 z"
           inkscape:connector-curvature="0" />
      </g>
    </g>
  </g>
</svg>
